<svg width="1602" height="500" viewBox="0 0 1602 500" fill="none" xmlns="http://www.w3.org/2000/svg">
<g clip-path="url(#clip0_6_2)">
<path d="M320 0H180C80.5887 0 0 80.5887 0 180V320C0 419.411 80.5887 500 180 500H320C419.411 500 500 419.411 500 320V180C500 80.5887 419.411 0 320 0Z" fill="#5117F7"/>
<path d="M349 150H309C306.791 150 305 151.791 305 154V261C305 263.209 306.791 265 309 265H349C351.209 265 353 263.209 353 261V154C353 151.791 351.209 150 349 150Z" fill="url(#paint0_linear_6_2)"/>
<path d="M251 137L286.507 178.25H215.493L251 137Z" fill="white"/>
<path d="M229.021 162.528C231.195 160.027 234.985 159.762 237.485 161.936L269.938 190.147C272.439 192.321 272.704 196.111 270.53 198.612L131.445 358.61C129.271 361.111 125.482 361.376 122.981 359.202L90.5283 330.991C88.0274 328.817 87.7624 325.028 89.9364 322.527L229.021 162.528Z" fill="white"/>
<path d="M218.08 182.973C216.122 180.72 216.117 177.372 218.068 175.113L246.474 142.239C248.862 139.474 253.145 139.468 255.542 142.225L410.53 320.527C412.704 323.028 412.439 326.817 409.938 328.991L377.486 357.202C374.985 359.376 371.195 359.111 369.021 356.61L218.08 182.973Z" fill="white"/>
</g>
<path d="M633.267 151.72C645.747 151.72 659.347 154.28 674.067 159.4C688.947 164.52 702.707 171.24 715.347 179.56C728.147 187.88 738.787 197.88 747.267 209.56C755.907 221.24 760.227 233.08 760.227 245.08C760.227 254.04 752.947 265.24 738.387 278.68C723.987 291.96 707.267 303.48 688.227 313.24C669.187 323 653.587 327.88 641.427 327.88C638.707 327.88 634.307 324.36 628.227 317.32C622.307 310.12 619.347 304.84 619.347 301.48C619.347 294.92 623.667 276.68 632.307 246.76C641.107 216.68 646.547 196.04 648.627 184.84C642.867 181 638.067 176.44 634.227 171.16C630.387 165.72 628.467 161.16 628.467 157.48C628.467 153.64 630.067 151.72 633.267 151.72ZM725.667 238.36C725.667 233.24 720.947 226.52 711.507 218.2C702.067 209.72 691.107 202.68 678.627 197.08C677.667 209.08 670.867 234.76 658.227 274.12C657.587 276.2 656.547 279.64 655.107 284.44C653.827 289.08 652.867 292.2 652.227 293.8C667.907 288.52 684.067 279.64 700.707 267.16C717.347 254.52 725.667 244.92 725.667 238.36ZM843.751 286.6C853.031 278.28 861.111 267.88 867.991 255.4C874.871 242.76 878.311 230.68 878.311 219.16C878.311 207.64 876.871 198.76 873.991 192.52C871.111 186.28 867.111 183.16 861.991 183.16C856.871 183.16 850.151 187.8 841.831 197.08C833.671 206.2 826.231 218.2 819.511 233.08C812.951 247.96 809.671 262.2 809.671 275.8C809.671 282.68 810.631 288.28 812.551 292.6C814.471 296.76 816.871 298.84 819.751 298.84C826.471 298.84 834.471 294.76 843.751 286.6ZM819.991 327.88C808.151 327.88 797.591 322.12 788.311 310.6C779.031 298.92 774.391 287.32 774.391 275.8C774.391 261.08 777.191 246.04 782.791 230.68C788.391 215.16 795.351 201.8 803.671 190.6C812.151 179.24 821.431 169.96 831.511 162.76C841.591 155.4 850.871 151.72 859.351 151.72C874.871 151.72 887.591 158.36 897.511 171.64C907.431 184.76 912.391 199.56 912.391 216.04C912.391 232.52 908.231 249.24 899.911 266.2C891.591 283 880.071 297.48 865.351 309.64C850.791 321.8 835.671 327.88 819.991 327.88ZM992.345 286.6C1001.62 278.28 1009.7 267.88 1016.58 255.4C1023.46 242.76 1026.9 230.68 1026.9 219.16C1026.9 207.64 1025.46 198.76 1022.58 192.52C1019.7 186.28 1015.7 183.16 1010.58 183.16C1005.46 183.16 998.745 187.8 990.425 197.08C982.265 206.2 974.825 218.2 968.105 233.08C961.545 247.96 958.265 262.2 958.265 275.8C958.265 282.68 959.225 288.28 961.145 292.6C963.065 296.76 965.465 298.84 968.345 298.84C975.065 298.84 983.065 294.76 992.345 286.6ZM968.585 327.88C956.745 327.88 946.185 322.12 936.905 310.6C927.625 298.92 922.985 287.32 922.985 275.8C922.985 261.08 925.785 246.04 931.385 230.68C936.985 215.16 943.945 201.8 952.265 190.6C960.745 179.24 970.025 169.96 980.105 162.76C990.185 155.4 999.465 151.72 1007.94 151.72C1023.46 151.72 1036.18 158.36 1046.1 171.64C1056.02 184.76 1060.98 199.56 1060.98 216.04C1060.98 232.52 1056.82 249.24 1048.5 266.2C1040.18 283 1028.66 297.48 1013.94 309.64C999.385 321.8 984.265 327.88 968.585 327.88ZM1106.86 152.2C1109.9 152.2 1115.82 155.48 1124.62 162.04C1133.58 168.44 1138.06 173.24 1138.06 176.44C1138.06 182.04 1139.9 191.24 1143.58 204.04C1147.26 216.84 1151.5 228.44 1156.3 238.84C1161.1 233.24 1169.18 222.92 1180.54 207.88C1192.06 192.68 1201.74 180.68 1209.58 171.88C1217.42 163.08 1223.26 158.68 1227.1 158.68C1230.94 158.68 1234.94 160.84 1239.1 165.16C1243.26 169.48 1245.34 173.8 1245.34 178.12C1245.34 182.44 1244.7 188.04 1243.42 194.92C1242.14 201.64 1240.7 207.96 1239.1 213.88C1237.66 219.64 1235.5 227.56 1232.62 237.64C1229.9 247.72 1227.74 255.72 1226.14 261.64C1224.7 267.4 1223.18 273.64 1221.58 280.36C1219.98 286.92 1218.7 292.12 1217.74 295.96C1216.94 299.64 1215.98 303.56 1214.86 307.72C1213.9 311.72 1213.02 314.84 1212.22 317.08C1211.42 319.16 1210.54 321.08 1209.58 322.84C1207.82 326.2 1205.34 327.88 1202.14 327.88C1198.94 327.88 1195.74 324.76 1192.54 318.52C1189.5 312.12 1187.98 305.48 1187.98 298.6C1187.98 281.64 1192.86 259.16 1202.62 231.16C1199.9 234.68 1195.98 239.88 1190.86 246.76C1185.74 253.48 1181.9 258.44 1179.34 261.64C1176.94 264.68 1173.9 268.28 1170.22 272.44C1163.66 279.64 1157.26 283.24 1151.02 283.24C1142.7 283.24 1136.78 279.96 1133.26 273.4C1131.5 270.04 1129.1 262.52 1126.06 250.84C1123.18 239 1121.1 230.84 1119.82 226.36C1117.74 242.84 1114.94 257.8 1111.42 271.24C1107.9 284.68 1105.58 293.48 1104.46 297.64C1103.34 301.8 1101.82 306.84 1099.9 312.76C1096.7 322.84 1093.82 327.88 1091.26 327.88C1088.38 327.88 1084.38 324.12 1079.26 316.6C1074.3 308.92 1071.82 302.92 1071.82 298.6C1071.82 294.28 1076.46 272.68 1085.74 233.8C1095.18 194.92 1099.9 170.36 1099.9 160.12C1099.9 154.84 1102.22 152.2 1106.86 152.2ZM1279.86 332.2C1274.74 332.2 1268.98 329.08 1262.58 322.84C1256.34 316.6 1253.22 311.24 1253.22 306.76C1253.22 302.12 1255.22 297.56 1259.22 293.08C1263.22 288.44 1267.22 286.12 1271.22 286.12C1275.38 286.12 1280.02 290.6 1285.14 299.56C1290.26 308.52 1292.82 315.32 1292.82 319.96C1292.82 322.36 1291.3 325 1288.26 327.88C1285.38 330.76 1282.58 332.2 1279.86 332.2ZM1438.34 319.24C1438.34 325.8 1433.78 329.08 1424.66 329.08C1412.18 329.08 1399.06 322.6 1385.3 309.64C1371.7 296.68 1362.02 283.16 1356.26 269.08C1353.7 276.76 1351.94 281.96 1350.98 284.68C1350.02 287.4 1348.58 291.72 1346.66 297.64C1344.74 303.56 1343.22 307.96 1342.1 310.84C1341.14 313.72 1340.02 316.76 1338.74 319.96C1336.34 326.04 1334.02 329.08 1331.78 329.08C1328.1 329.08 1323.62 326.04 1318.34 319.96C1313.22 313.72 1310.66 308.68 1310.66 304.84C1310.66 301 1312.5 293.88 1316.18 283.48C1327.06 251.64 1333.3 222.6 1334.9 196.36C1331.86 193.96 1329.14 190.6 1326.74 186.28C1324.34 181.96 1323.14 178.36 1323.14 175.48C1323.14 170.68 1329.3 165.64 1341.62 160.36C1354.1 155.08 1368.42 152.44 1384.58 152.44C1400.9 152.44 1414.5 156.28 1425.38 163.96C1436.26 171.64 1441.7 181.64 1441.7 193.96C1441.7 203.08 1438.98 211.88 1433.54 220.36C1428.26 228.68 1422.42 235.24 1416.02 240.04C1409.78 244.68 1403.94 248.92 1398.5 252.76C1393.22 256.6 1390.58 259.08 1390.58 260.2C1390.58 264.04 1391.86 267.72 1394.42 271.24C1396.98 274.6 1400.58 278.6 1405.22 283.24C1409.86 287.72 1413.86 291.56 1417.22 294.76C1420.58 297.8 1423.3 300.36 1425.38 302.44C1427.62 304.52 1429.78 306.68 1431.86 308.92C1436.18 313.08 1438.34 316.52 1438.34 319.24ZM1404.74 196.36C1404.74 189.64 1398.18 186.28 1385.06 186.28C1378.82 186.28 1371.38 188.04 1362.74 191.56C1366.74 197.64 1368.74 203.24 1368.74 208.36C1368.74 217.64 1367.46 227.88 1364.9 239.08C1366.66 237.8 1369.94 235.56 1374.74 232.36C1379.54 229 1383.22 226.36 1385.78 224.44C1388.5 222.36 1391.54 219.72 1394.9 216.52C1401.46 210.28 1404.74 203.56 1404.74 196.36ZM1487.2 151.72C1491.2 151.72 1496.24 154.6 1502.32 160.36C1508.56 166.12 1511.68 171.8 1511.68 177.4C1511.68 182.84 1508.8 197.08 1503.04 220.12C1497.28 243.16 1494.4 259.08 1494.4 267.88C1494.4 276.52 1495.44 283.16 1497.52 287.8C1499.76 292.44 1502.8 294.76 1506.64 294.76C1510.64 294.76 1515.28 291.96 1520.56 286.36C1525.84 280.6 1530.88 273.24 1535.68 264.28C1540.64 255.16 1544.72 244.36 1547.92 231.88C1551.28 219.24 1552.96 207.56 1552.96 196.84C1552.96 185.96 1552.4 177.24 1551.28 170.68C1550.32 164.12 1549.84 160.2 1549.84 158.92C1549.84 153.96 1551.92 151.48 1556.08 151.48C1561.2 151.48 1567.76 155.8 1575.76 164.44C1583.92 173.08 1588 183.4 1588 195.4C1588 207.24 1585.92 220.92 1581.76 236.44C1577.6 251.8 1572 266.36 1564.96 280.12C1557.92 293.88 1548.96 305.32 1538.08 314.44C1527.36 323.56 1516.32 328.12 1504.96 328.12C1493.76 328.12 1483.6 322.2 1474.48 310.36C1465.36 298.52 1460.8 286.44 1460.8 274.12C1460.8 261.8 1462.4 247.56 1465.6 231.4C1468.8 215.08 1472 200.44 1475.2 187.48C1478.4 174.52 1480 165.32 1480 159.88C1480 154.44 1482.4 151.72 1487.2 151.72Z" fill="#E5E5E5"/>
<defs>
<linearGradient id="paint0_linear_6_2" x1="329" y1="150" x2="329" y2="295" gradientUnits="userSpaceOnUse">
<stop stop-color="white"/>
<stop offset="1" stop-color="#BFBFBF"/>
</linearGradient>
<clipPath id="clip0_6_2">
<rect width="500" height="500" fill="white"/>
</clipPath>
</defs>
</svg>
